<?xml version="1.0" encoding="UTF-8" standalone="no"?>
<!-- Created with Inkscape (http://www.inkscape.org/) -->

<svg
   id="svg3059"
   sodipodi:docname="x.svg"
   viewBox="0 0 64 100"
   version="1.1"
   inkscape:version="1.1.2 (0a00cf5339, 2022-02-04)"
   width="64"
   height="100"
   xmlns:inkscape="http://www.inkscape.org/namespaces/inkscape"
   xmlns:sodipodi="http://sodipodi.sourceforge.net/DTD/sodipodi-0.dtd"
   xmlns="http://www.w3.org/2000/svg"
   xmlns:svg="http://www.w3.org/2000/svg"
   xmlns:rdf="http://www.w3.org/1999/02/22-rdf-syntax-ns#"
   xmlns:cc="http://creativecommons.org/ns#"
   xmlns:dc="http://purl.org/dc/elements/1.1/">
  <defs
     id="defs11" />
  <sodipodi:namedview
     id="base"
     bordercolor="#666666"
     inkscape:pageshadow="2"
     inkscape:window-y="27"
     pagecolor="#ffffff"
     inkscape:window-height="1016"
     inkscape:window-maximized="1"
     inkscape:zoom="11.2"
     inkscape:window-x="70"
     showgrid="false"
     borderopacity="1.0"
     inkscape:current-layer="layer1"
     inkscape:cx="42.1875"
     inkscape:cy="51.026786"
     inkscape:window-width="1850"
     inkscape:pageopacity="0.0"
     inkscape:document-units="px"
     inkscape:pagecheckerboard="0"
     width="63px"
     scale-x="1" />
  <g
     id="layer1"
     inkscape:label="Layer 1"
     inkscape:groupmode="layer">
    <g
       id="g3653"
       transform="matrix(0.11000858,0,0,0.11000858,-9.9459105,-9.2457355)">
      <path
         id="path3657"
         style="fill:#ff0000;fill-opacity:1"
         inkscape:connector-curvature="0"
         d="m 572.92,917.73 c -3.9476,-4.6105 -15.03,-25.186 -24.627,-45.723 -9.597,-20.537 -22.243,-44.727 -28.101,-53.756 -29.021,-44.725 -84.714,-116.55 -117.32,-151.31 -4.0943,-4.3642 -18.156,-21.325 -31.248,-37.691 -13.092,-16.366 -25.098,-30.263 -26.681,-30.882 -1.5825,-0.61916 -6.0862,7.4149 -10.008,17.854 -3.9221,10.439 -15.558,35.94 -25.858,56.67 -10.3,20.73 -24.578,54.652 -31.73,75.382 -16.084,46.622 -31.002,79.349 -36.17,79.349 -2.1524,0 -2.9489,1.5608 -1.7699,3.4683 1.179,1.9076 -2.099,8.0462 -7.2844,13.641 -5.1854,5.5951 -8.4251,11.176 -7.1993,12.402 1.2257,1.2258 0.14569,2.2286 -2.4001,2.2286 -2.54579,0 -4.8399,-2.2317 -5.0981,-4.9593 -0.25817,-2.7276 -1.6964,0.39675 -3.1962,6.943 -1.4997,6.5463 -4.8592,11.456 -7.4655,10.911 -2.6063,-0.54553 -4.2924,1.2398 -3.7469,3.9674 0.66848,3.3424 -4.8483,5.0744 -16.921,5.3123 -9.8518,0.19401 -21.786,2.4258 -26.52,4.9593 -12.876,6.8908 -14.695,5.653 -7.6013,-5.1727 7.9622,-12.152 7.9919,-14.026 0.22215,-14.026 -3.4019,0 -5.1975,1.5983 -3.9902,3.5517 1.2073,1.9534 -0.41551,4.5535 -3.6062,5.7779 -9.3059,3.571 -11.113,-4.6141 -2.2419,-10.154 11.091,-6.9266 10.167,-12.4 -1.7097,-10.13 -5.3892,1.0302 -8.9308,0.46903 -7.8702,-1.2471 1.0606,-1.71613 0.0274,-4.2952 -2.2964,-5.7313 -2.9713,-1.8364 -2.9802,-4.1107 -0.0301,-7.6655 3.2423,-3.9067 2.0769,-4.6495 -5.1323,-3.2714 -5.2513,1.0038 -11.995,-0.88487 -15.432,-4.3221 -3.3578,-3.3578 -6.7853,-5.7437 -7.6168,-5.3021 -0.83143,0.44162 1.0826,-1.4288 4.2534,-4.1564 3.1708,-2.7276 4.0849,-5.0161 2.0312,-5.0855 -2.0536,-0.0694 -0.9172,-2.3011 2.5254,-4.9593 22.222,-17.158 54.089,-74.68 60.925,-109.97 0.21135,-1.091 1.4491,-3.7691 2.7505,-5.9512 1.3015,-2.1821 3.5429,-8.8893 4.9809,-14.905 1.438,-6.0156 13.08,-32.134 25.871,-58.041 12.791,-25.907 25.502,-54.014 28.247,-62.461 2.745,-8.4465 13.862,-32.773 24.705,-54.058 l 19.73,-38.7 -13.33,-21.72 c -26.9,-43.83 -112.83,-162.15 -123.55,-170.1 -8.8639,-6.5808 -10.577,-10.31 -8.687,-18.913 1.8673,-8.5018 0.66434,-11.253 -5.821,-13.311 -10.457,-3.3188 -10.617,-9.9948 -0.23979,-9.9948 4.3642,0 7.9349,-2.5893 7.9349,-5.754 0,-3.1647 2.8411,-7.344 6.3135,-9.2872 5.1884,-2.9036 4.1127,-4.4448 -6.0363,-8.6487 -19.511,-8.0816 -19.797,-13.551 -0.57352,-10.973 16.276,2.1831 16.581,2.0226 9.9859,-5.2646 -6.2455,-6.9012 -6.2709,-7.7202 -0.311,-10.007 3.5702,-1.37 9.122,-1.4814 12.337,-0.24749 3.2154,1.2339 7.3857,-0.50734 9.2672,-3.8694 5.1929,-9.2792 25.659,-5.5078 30.512,5.6227 2.92,6.6968 6.2239,8.535 12.514,6.9628 6.6224,-1.6552 12.875,2.6107 27.772,18.946 10.574,11.595 24.582,28.978 31.128,38.628 12.194,17.974 73.116,103.49 75.989,106.66 0.87764,0.96953 7.3488,-5.2724 14.38,-13.871 7.0315,-8.5985 37.388,-42.997 67.46,-76.441 30.071,-33.444 64.358,-73.671 76.191,-89.394 30.374,-40.356 53.62,-55.838 53.62,-35.713 0,4.517 3.1722,3.4005 12.401,-4.3647 13.713,-11.539 18.29,-11.073 11.726,1.1935 -5.7385,10.723 -5.4114,12.685 1.6623,9.9703 4.2242,-1.621 5.9512,0.35763 5.9512,6.818 0,8.9862 0.15037,8.9575 11.861,-2.2619 13.92,-13.336 19.402,-10.629 12.972,6.4047 -3.7994,10.066 -3.6244,11.732 1.044,9.9405 8.2641,-3.1712 10.832,3.8729 5.0052,13.728 -4.0527,6.8541 -4.0802,8.9817 -0.1345,10.411 2.7276,0.9878 4.9593,3.5871 4.9593,5.7763 0,6.2186 -37.072,58.096 -61.892,86.61 -26.156,30.048 -79.619,89.519 -90.287,100.43 -11.896,12.17 -57.22,69.054 -61.72,77.461 -3.073,5.7419 -2.4774,11.13 2.326,21.041 9.0842,18.745 41.891,63.257 74.153,100.61 15.078,17.457 31.71,36.718 36.959,42.803 35.988,41.717 104.43,138.93 104.43,148.32 0,2.8947 1.4627,5.2631 3.2505,5.2631 1.7878,0 8.7492,12.944 15.47,28.764 16.109,37.92 17.506,42.65 12.591,42.65 -2.4106,0 -3.6726,7.0587 -3.0146,16.862 0.9435,14.058 0.004,16.668 -5.6478,15.696 -4.5632,-0.78468 -6.7795,1.485 -6.7795,6.943 0,10.619 -5.943,10.31 -13.661,-0.70886 l -6.1761,-8.8177 v 10.801 c 0,8.047 -1.9638,10.801 -7.7008,10.801 -4.2354,0 -8.8578,-1.872 -10.272,-4.1601 -1.7813,-2.8822 -4.0981,-2.8928 -7.5422,-0.0357 -2.7341,2.2691 -6.291,2.8058 -7.9042,1.1926 -1.6132,-1.6132 -1.7624,1.7311 -0.33168,7.4316 3.4461,13.731 -6.2575,17.592 -15.902,6.3281 z" />
      <path
         id="path3655"
         style="fill:#a50000;fill-opacity:1"
         inkscape:connector-curvature="0"
         d="m 576.02,913.91 c -2.1343,-2.7276 -13.982,-26.131 -26.329,-52.008 -12.347,-25.877 -26.059,-51.764 -30.472,-57.528 -4.4127,-5.7639 -22.492,-30.119 -40.177,-54.122 -17.685,-24.003 -46.874,-59.963 -64.866,-79.91 -17.991,-19.947 -40.191,-46.174 -49.332,-58.282 -11.037,-14.619 -18.597,-21.256 -22.503,-19.757 -3.2354,1.2415 -4.9933,4.5744 -3.9066,7.4065 1.0868,2.832 -0.93027,7.5114 -4.4823,10.399 -5.604,4.5551 -6.0953,4.2824 -3.7147,-2.0622 4.811,-12.822 7.607,-26.412 5.4339,-26.412 -3.9938,0 -62.46,124.53 -68.803,146.54 -12.099,41.997 -25.998,75.596 -30.198,73 -2.2747,-1.4059 -3.1269,-0.92354 -1.8937,1.0718 3.4953,5.6555 -6.6711,26.16 -19.311,38.95 -6.3034,6.3776 -9.229,10.289 -6.5013,8.6926 2.7276,-1.5967 4.9593,-1.9509 4.9593,-0.78711 0,1.16379 -5.7121,5.0698 -12.693,8.68 l -12.693,6.5641 6.8338,-10.43 c 3.7586,-5.7363 5.0072,-10.43 2.7748,-10.43 -2.2324,0 -4.0589,1.7854 -4.0589,3.9675 0,2.1821 -1.8907,3.9675 -4.2016,3.9675 -2.3109,0 -2.8608,-2.2317 -1.2221,-4.9593 2.0245,-3.3698 0.82792,-3.2141 -3.7333,0.48577 -7.2673,5.8949 -9.2033,10.448 -2.7453,6.4573 2.1821,-1.3486 3.9675,-1.4998 3.9675,-0.33605 0,1.16375 -4.9735,4.6879 -11.052,7.8313 -10.159,5.2535 -11.052,5.125 -11.052,-1.5906 0,-4.0182 1.4028,-6.4389 3.1173,-5.3793 1.7145,1.0596 3.1173,-0.44333 3.1173,-3.3398 0,-2.89647 4.578,-8.0442 10.173,-11.439 9.6414,-5.85 9.797,-6.4619 2.9756,-11.699 -3.9588,-3.0392 -5.9438,-4.0331 -4.4112,-2.2086 1.5327,1.8244 0.63999,5.4361 -1.9837,8.0261 -6.8551,6.7669 -18.656,10.641 -18.656,6.1242 0,-2.1136 3.0193,-3.843 6.7095,-3.843 6.0013,0 5.9373,-0.56461 -0.60613,-5.3493 -4.0236,-2.9421 -6.1414,-7.2493 -4.7062,-9.5714 1.6584,-2.6833 -1.3594,-3.7865 -8.2798,-3.0268 -5.9891,0.65741 -14.378,-1.248 -18.641,-4.2344 -6.6625,-4.6666 -8.8987,-4.5102 -15.911,1.1123 -4.4872,3.5981 0.20531,-1.6368 10.428,-11.633 22.153,-21.663 29.629,-35.551 48.679,-90.429 7.9266,-22.835 24.343,-62.049 36.48,-87.144 12.138,-25.094 25.7,-55.445 30.14,-67.447 4.4393,-12.002 14.963,-34.471 23.385,-49.932 8.4226,-15.461 15.314,-31.634 15.314,-35.941 0,-8.1843 -21.003,-45.405 -36.569,-64.806 -4.9814,-6.2087 -21.555,-29.453 -36.829,-51.653 -39.964,-58.084 -56.94,-79.358 -63.325,-79.358 -8.0836,0 -5.807,-15.43 2.6738,-18.122 10.651,-3.3805 8.5843,-7.9886 -5.8037,-12.941 l -12.894,-4.4384 12.65,1.1577 12.65,1.1577 -8.4705,-11.896 c -4.6588,-6.5426 -6.4858,-10.669 -4.06,-9.1699 2.4258,1.4992 13.043,3.4276 23.593,4.2854 10.55,0.85778 16.94,0.69372 14.199,-0.36457 -2.7412,-1.0583 -4.0504,-3.4348 -2.9092,-5.2813 1.1412,-1.8464 -1.2696,-5.711 -5.3573,-8.5879 -4.0877,-2.8769 -8.7656,-9.6942 -10.395,-15.149 -2.7575,-9.2298 -2.5703,-9.404 2.6956,-2.5073 6.1952,8.1138 34.836,19.577 34.836,13.942 0,-1.925 -3.1244,-3.6409 -6.943,-3.8132 -4.1886,-0.18897 -4.9658,-1.1104 -1.959,-2.3226 2.7412,-1.1052 3.7641,-3.9832 2.2732,-6.3957 -1.491,-2.4125 4.1776,-0.12898 12.597,5.0744 12.427,7.6804 14.823,8.1963 12.729,2.7414 -8.1281,-21.181 24.446,12.432 51.555,53.2 10.043,15.103 17.02,28.699 15.505,30.214 -1.5151,1.5151 -3.7849,-1.1843 -5.0439,-5.9987 -1.259,-4.8144 -3.7708,-8.7535 -5.5817,-8.7535 -1.811,0 -10.083,-10.252 -18.383,-22.783 -16.747,-25.285 -26.995,-36.729 -32.889,-36.729 -2.1523,0 7.3579,15.622 21.134,34.715 13.7761,19.093 39.789,55.706 57.808,81.361 18.018,25.655 34.4,45.632 36.405,44.393 4.3613,-2.6954 -0.20229,-11.985 -12.077,-24.584 -5.251,-5.5711 -6.4914,-8.9225 -3.2999,-8.9154 2.8126,0.006 8.6846,5.3572 13.049,11.891 8.6287,12.918 15.664,15.069 20.632,6.307 3.3289,-5.8707 28.919,-35.018 93.474,-106.47 21.298,-23.572 48.511,-56.093 60.472,-72.267 21.224,-28.699 29.761,-37.641 29.731,-31.141 -0.008,1.7654 -3.45,8.8434 -7.6486,15.729 -9.831,16.123 -6.1708,19.851 5.9624,6.0729 6.4548,-7.3297 9.4747,-8.7991 9.6718,-4.7062 0.17853,3.7097 4.7089,0.77745 12.028,-7.785 13.335,-15.6 15.646,-12.077 3.8062,5.8013 -4.3354,6.5463 -7.8944,13.083 -7.9088,14.527 -0.0317,3.26 8.228,2.1596 14.852,-1.9784 6.0474,-3.7779 6.2705,-0.87964 0.81051,10.525 -2.2818,4.7663 3.9669,-0.21195 13.886,-11.063 16.699,-18.267 22.833,-19.54 14.599,-3.0304 -5.7408,11.512 -12.403,34.031 -10.601,35.833 0.93223,0.93225 6.2572,-3.2278 11.833,-9.2445 5.5761,-6.0167 10.138,-9.6429 10.138,-8.0582 0,7.6585 -51.401,76.053 -83.683,111.35 -92.822,101.49 -103.62,113.81 -119.3,136.16 -12.607,17.97 -12.841,24.158 -0.64689,17.067 3.9823,-2.3158 5.78,-4.2648 3.9949,-4.3311 -4.4753,-0.16636 12.806,-23.925 17.402,-23.925 2.0335,0 3.6973,1.7854 3.6973,3.9675 0,2.1821 -2.3805,3.9675 -5.2899,3.9675 -2.9095,0 -5.29,2.2867 -5.29,5.0816 0,7.8967 -13.674,26.849 -17.614,24.414 -1.9368,-1.197 -1.7415,2.5052 0.43398,8.2272 2.17548,5.722 3.8987,13.412 3.8293,17.088 -0.10998,5.8262 -0.87433,5.6956 -5.9512,-1.0166 -4.7638,-6.2983 -5.825,-6.5472 -5.825,-1.3668 0,10.834 16.13,37.24 44.326,72.566 14.899,18.666 27.089,34.422 27.089,35.013 0,0.59111 9.5821,10.968 21.294,23.059 11.7119,12.091 35.727,41.46 53.367,65.263 17.64,23.803 33.596,45.064 35.456,47.246 20.242,23.746 52.36,82.797 62.357,114.65 2.8095,8.9516 6.3934,19.846 7.9643,24.211 1.5709,4.3642 -1.9598,0.22417 -7.8459,-9.2001 -11.944,-19.124 -17.944,-20.06 -8.2351,-1.2842 7.848,15.176 8.0594,20.353 0.41873,10.251 -6.8134,-9.0081 -8.2633,-1.3455 -1.9703,10.413 2.2589,4.2207 2.5771,7.6741 0.70724,7.6741 -1.86986,0 -7.4342,-8.9268 -12.365,-19.837 -8.1397,-18.01 -16.254,-25.933 -16.254,-15.87 0,2.1821 1.7854,3.9674 3.9675,3.9674 6.7217,0 4.3809,15.243 -2.9756,19.377 -5.2381,2.9434 -9.1352,1.8478 -15.87,-4.4619 -9.7449,-9.1299 -11.219,-5.5898 -4.7526,11.417 4.1602,10.942 4.1464,10.954 -4.1074,3.4842 -4.5549,-4.1221 -7.382,-9.8391 -6.2824,-12.704 1.0995,-2.8653 0.26979,-5.2097 -1.8438,-5.2097 -2.11359,0 -3.843,2.1049 -3.843,4.6776 0,5.8331 7.7209,30.666 12.423,39.956 4.0834,8.0679 2.1886,9.1639 -3.4296,1.9837 z m 16.795,-102.16 c -1.3486,-2.1821 -5.471,-3.9401 -9.1609,-3.9067 -5.7817,0.0524 -5.8864,0.5923 -0.75771,3.9067 7.7698,5.0212 13.022,5.0212 9.9186,0 z m -388.86,-10.41 c 3.7505,-5.7239 4.8581,-9.1952 2.4614,-7.714 -4.58,2.8306 -13.817,18.121 -10.947,18.121 0.91687,0 4.7356,-4.6832 8.486,-10.407 z m 373.28,-12.5 c -6.8548,-6.5472 -6.9612,-6.4408 -2.418,2.418 2.6138,5.0966 5.8404,8.1785 7.1703,6.8486 1.3299,-1.3299 -0.80869,-5.4998 -4.7524,-9.2666 z m -361.24,-9.1313 c 3.7518,-11.821 0.63249,-12.743 -4.7225,-1.3957 -2.4994,5.2963 -3.0474,9.6296 -1.2176,9.6296 1.8298,0 4.5028,-3.7052 5.9402,-8.2339 z m 303.91,-20.596 c -3.9183,-3.8891 -4.374,-3.4334 -2.221,2.221 1.4899,3.9128 3.7084,6.1147 4.9299,4.8932 1.2215,-1.2215 0.003,-4.4229 -2.7089,-7.1142 z m -16.67,-12.07 c -0.22416,-3.382 -0.88439,-3.3084 -2.3226,0.25868 -1.1051,2.7412 -3.9181,3.8044 -6.251,2.3626 -2.5281,-1.5625 -3.0818,-0.74493 -1.3707,2.0237 3.3758,5.4621 10.397,2.1823 9.9443,-4.6452 z m 41.357,-4.8963 c -1.2922,-3.3673 -3.2003,-5.2714 -4.2402,-4.2314 -1.04,1.04 -0.71407,3.795 0.72426,6.1223 3.9121,6.3299 6.1987,5.1002 3.516,-1.8909 z m -39.06,-5.7801 c -1.3486,-2.1821 -3.2394,-3.9675 -4.2016,-3.9675 -0.96227,0 -1.7496,1.7854 -1.7496,3.9675 0,2.1821 1.8907,3.9675 4.2016,3.9675 2.3109,0 3.0982,-1.7854 1.7496,-3.9675 z m -314.26,-7.9404 c 1.142,-4.3672 0.4576,-6.9399 -1.521,-5.717 -1.9786,1.2228 -3.5975,4.796 -3.5975,7.9404 0,8.2116 2.6959,7.0406 5.1185,-2.2234 z m 10.751,-0.22868 c 0,-2.3109 -1.7854,-3.0982 -3.9675,-1.7496 -2.1821,1.3486 -3.9675,3.2394 -3.9675,4.2016 0,0.96227 1.7854,1.7496 3.9675,1.7496 2.1821,0 3.9675,-1.8907 3.9675,-4.2016 z m 323.35,-15.636 c -1.3486,-2.1821 -3.2394,-3.9675 -4.2016,-3.9675 -0.96226,0 -1.7496,1.7854 -1.7496,3.9675 0,2.1821 1.8907,3.9674 4.2016,3.9674 2.3109,0 3.0982,-1.7854 1.7496,-3.9674 z m -323.36,-13.45 c 0,-0.85761 -2.678,-2.5869 -5.9512,-3.843 -3.2732,-1.256 -5.9512,-0.55434 -5.9512,1.5592 0,2.1136 2.678,3.843 5.9512,3.843 3.2732,0 5.9512,-0.70169 5.9512,-1.5592 z m 5.6912,-21.015 c 1.6199,-4.2214 0.37362,-4.4764 -5.7804,-1.1829 -9.3459,5.0018 -9.8376,6.5647 -2.0652,6.5647 3.1792,0 6.7098,-2.4218 7.8456,-5.3818 z m 1.4775,-19.189 c -1.2215,-1.2215 -3.44,0.9804 -4.9299,4.8932 -2.1531,5.6544 -1.6974,6.1101 2.221,2.221 2.7114,-2.6913 3.9304,-5.8926 2.7089,-7.1142 z m 212.48,-7.8299 c -0.97691,-2.5458 -4.2072,-4.6287 -7.1784,-4.6287 -2.9712,0 -4.6029,2.0829 -3.626,4.6287 0.97691,2.5458 4.2072,4.6287 7.1784,4.6287 2.9712,0 4.6029,-2.0829 3.626,-4.6287 z m -132.7,-53.55 c 0.19385,-5.2899 -0.20924,-5.2899 -3.6278,0 -2.1153,3.2732 -3.7478,9.5219 -3.6278,13.886 0.21809,7.9349 0.21809,7.9349 3.6278,0 1.8754,-4.3642 3.5079,-10.613 3.6278,-13.886 z m -35.122,-20.296 c 3.4962,-6.5327 3.384,-8.0245 -0.50563,-6.728 -2.7489,0.91628 -5.4423,4.6935 -5.9854,8.3939 -1.3333,9.0842 1.0674,8.4681 6.491,-1.666 z m 5.7055,-15.411 c 1.3486,-2.1821 0.66667,-3.9675 -1.5154,-3.9675 -2.18207,0 -5.0709,1.7854 -6.4195,3.9675 -1.3486,2.1821 -0.66667,3.9674 1.5154,3.9674 2.18207,0 5.0709,-1.7854 6.4195,-3.9674 z m 15.87,-39.675 c -1.3486,-2.1821 -3.2393,-3.9674 -4.2016,-3.9674 -0.96227,0 -1.7496,1.7854 -1.7496,3.9674 0,2.1821 1.8907,3.9675 4.2016,3.9675 2.3109,0 3.0982,-1.7854 1.7496,-3.9675 z m 11.733,-19.563 c 1.2554,-2.0313 0.76567,-4.6308 -1.0883,-5.7767 -1.854,-1.1458 -3.3709,0.51613 -3.3709,3.6933 0,6.6898 1.2511,7.2743 4.4593,2.0834 z m -128.78,-238.32 c -7.7698,-5.0212 -13.022,-5.0212 -9.9186,0 1.3486,2.1821 5.471,3.9401 9.1609,3.9067 5.7817,-0.0523 5.8864,-0.59229 0.75771,-3.9067 z m -2.2512,619.36 c 2.8306,-4.58 18.121,-13.817 18.121,-10.947 0,0.91684 -4.6832,4.7356 -10.407,8.486 -5.7239,3.7504 -9.1952,4.8581 -7.714,2.4613 z m 37.958,-6.1499 c 0,-4.1876 7.614,-5.9469 9.8786,-2.2826 1.3706,2.2177 -0.29138,4.0322 -3.6933,4.0322 -3.40192,0 -6.1853,-0.78731 -6.1853,-1.7496 z m 27.772,-29.141 c 0,-1.9727 3.8305,-6.9878 8.5122,-11.145 8.4531,-7.5055 8.4805,-7.4975 3.9461,1.1479 -5.0581,9.6438 -12.458,15.582 -12.458,9.9968 z m 430.47,-0.84904 c -1.3486,-2.1821 -0.56132,-3.9675 1.7496,-3.9675 2.31092,0 4.2016,1.7854 4.2016,3.9675 0,2.1821 -0.7873,3.9675 -1.7496,3.9675 -0.96227,0 -2.853,-1.7854 -4.2016,-3.9675 z m -517.42,-9.0576 c 0.90921,-0.61745 4.6185,-3.3822 8.2429,-6.1438 5.0991,-3.8852 7.2572,-3.9414 9.5398,-0.24797 1.8032,2.9176 1.2759,3.7385 -1.3564,2.1117 -2.3685,-1.4638 -5.4277,-0.84697 -6.7983,1.3707 -1.3706,2.2176 -4.4696,4.0321 -6.8866,4.0321 -2.417,0 -3.6506,-0.50522 -2.7414,-1.1227 z m 509.61,-7.9752 c -1.6983,-3.9128 -1.9746,-8.2274 -0.614,-9.588 4.0289,-4.029 7.2767,1.6304 5.4223,9.4486 -1.6439,6.931 -1.8578,6.9371 -4.8083,0.13926 z m -406.79,-6.7719 c 0,-2.1821 1.7854,-3.9675 3.9675,-3.9675 2.1821,0 3.9674,1.7854 3.9674,3.9675 0,2.1821 -1.7854,3.9674 -3.9674,3.9674 -2.1821,0 -3.9675,-1.7854 -3.9675,-3.9674 z m 8.8441,-16.614 c 0.86375,-2.5913 3.6918,-5.4185 6.2845,-6.2827 2.8992,-0.96639 3.7859,0.84741 2.3032,4.7114 -2.7674,7.2117 -10.968,8.7122 -8.5877,1.5714 z m 382.5,-13.14 c -1.256,-3.2732 -1.6656,-5.9512 -0.91026,-5.9512 0.75537,0 3.596,2.678 6.3125,5.9512 2.8468,3.4302 3.2324,5.9512 0.91026,5.9512 -2.2158,0 -5.0564,-2.678 -6.3125,-5.9512 z m -375.35,-2.4898 c -0.0694,-3.5515 2.5519,-8.6798 5.825,-11.396 7.6276,-6.3304 7.7079,0.12815 0.12617,10.152 -4.8936,6.47 -5.8452,6.6688 -5.9512,1.2441 z m 364.88,-17.347 c 0,-3.2732 0.70168,-5.9512 1.5592,-5.9512 0.8576,0 2.5869,2.678 3.843,5.9512 1.256,3.2732 0.55434,5.9512 -1.5592,5.9512 -2.1136,0 -3.843,-2.678 -3.843,-5.9512 z m -12.894,-16.033 c -7.9741,-10.64 -8.6146,-13.723 -2.8511,-13.723 2.2506,0 5.2447,3.1244 6.6537,6.943 1.4089,3.8187 4.2215,8.0589 6.2502,9.4227 2.0287,1.3638 2.1589,3.4116 0.28923,4.5506 -1.8695,1.139 -6.5235,-2.0981 -10.342,-7.1934 z m -337.75,-4.7961 c 1.4335,-6.0008 3.8297,-12.696 5.3248,-14.878 1.4952,-2.1821 2.955,-8.4044 3.2441,-13.827 0.28911,-5.4229 2.3903,-10.481 4.6694,-11.241 2.2791,-0.75969 4.1437,-4.8032 4.1437,-8.9855 0,-4.1824 1.7854,-7.6043 3.9675,-7.6043 2.1821,0 3.9674,-2.8056 3.9674,-6.2346 0,-3.429 2.678,-8.9126 5.9512,-12.186 3.2732,-3.2732 5.9512,-5.1467 5.9512,-4.1635 0,3.1271 -21.045,48.288 -23.466,50.356 -1.2773,1.091 -2.4154,3.7691 -2.5291,5.9512 -0.64009,12.287 -7.1424,33.723 -10.229,33.723 -1.9808,0 -2.4286,-4.9097 -0.99512,-10.911 z m 324.86,-16.862 c -1.3486,-2.1821 -0.56132,-3.9675 1.7496,-3.9675 2.31092,0 4.2016,1.7854 4.2016,3.9675 0,2.1821 -0.7873,3.9675 -1.7496,3.9675 -0.96226,0 -2.853,-1.7854 -4.2016,-3.9675 z m -13.81,-17.76 c -3.1293,-3.7706 -3.4304,-6.0471 -0.79953,-6.0471 4.7949,0 10.385,7.5271 7.6338,10.278 -0.99861,0.99861 -4.074,-0.90553 -6.8343,-4.2314 z m -11.982,-15.966 c -4.0451,-4.8741 -3.774,-5.9512 1.498,-5.9512 3.5403,0 6.437,2.678 6.437,5.9512 0,3.2732 -0.67407,5.9512 -1.498,5.9512 -0.82384,0 -3.7205,-2.678 -6.437,-5.9512 z m -17.822,-24.797 c -6.5291,-8.1827 -11.11,-14.878 -10.181,-14.878 0.9297,0 -3.1014,-5.1704 -8.9581,-11.49 -5.8566,-6.3194 -10.648,-13.077 -10.648,-15.016 0,-1.9394 5.3561,2.574 11.902,10.03 6.5463,7.4558 11.902,14.745 11.902,16.198 0,1.4532 4.7185,6.7008 10.486,11.661 5.7671,4.9606 9.7841,11.124 8.9268,13.695 -0.85733,2.5719 -6.9008,-2.0188 -13.43,-10.201 z m -234.93,-34.27 c 6.9941,-13.944 14.019,-24.573 15.611,-23.621 3.1586,1.8894 -4.4546,17.448 -10.829,22.132 -2.1821,1.6032 -2.5826,2.9422 -0.88998,2.9756 4.3977,0.0869 -8.4757,23.865 -12.92,23.865 -2.0284,0 2.0345,-11.408 9.0287,-25.352 z m 193.24,-17.901 c 0,-2.2259 -3.8871,-7.6685 -8.6381,-12.095 -4.7509,-4.4262 -7.7252,-8.9604 -6.6096,-10.076 1.1157,-1.1157 6.7365,3.2554 12.491,9.7135 5.7711,6.477 8.7347,12.81 6.6095,14.123 -2.1189,1.3096 -3.8526,0.55992 -3.8526,-1.666 z m -31.84,-34.219 c -12.399,-13.198 -6.667,-17.661 6.1809,-4.8133 5.5926,5.5926 8.5572,11.164 6.588,12.381 -1.9692,1.2171 -7.7152,-2.1885 -12.769,-7.5679 z m -19.9,-25.98 c -4.0446,-7.5574 -3.7204,-7.8676 3.939,-3.7684 4.5905,2.4568 7.2983,6.1626 6.0174,8.2352 -3.3834,5.4746 -5.0316,4.7352 -9.9563,-4.4668 z m -19.289,-22.96 c -4.4483,-6.2471 -6.9744,-12.472 -5.6134,-13.833 2.0052,-2.0052 21.096,19.694 21.096,23.978 0,4.9908 -8.8199,-0.78877 -15.482,-10.145 z m -19.805,-28.58 c -4.3687,-7.1838 -6.886,-14.772 -5.594,-16.862 1.292,-2.0905 5.6559,2.9976 9.6976,11.307 9.2769,19.072 6.4467,22.904 -4.1036,5.5554 z m 17.507,-95.334 c 3.0313,-5.146 56.451,-66.545 61.804,-71.035 1.3006,-1.091 17.245,-18.945 35.432,-39.675 18.187,-20.73 35.497,-40.124 38.466,-43.098 2.9694,-2.9741 11.425,-14.828 18.791,-26.343 7.3657,-11.514 15.326,-22.13 17.689,-23.591 8.5704,-5.2968 3.9616,5.8736 -11.573,28.05 -8.7284,12.46 -15.876,21.02 -15.885,19.022 -0.008,-1.9983 -3.5891,2.229 -7.9576,9.3941 -4.3685,7.1651 -10.611,14.051 -13.871,15.302 -3.2607,1.2512 -5.9408,4.3156 -5.9558,6.8098 -0.0238,4.1402 -28.367,36.754 -86.861,99.953 -22.613,24.432 -36.454,36.033 -30.079,25.21 z m -132.64,-102.84 c -17.473,-28.397 -15.143,-33.605 3.4992,-7.8239 16.252,22.476 18.593,27.721 12.371,27.721 -1.9949,0 -9.1364,-8.9536 -15.87,-19.897 z m -170.94,-107.06 c -5.2899,-3.4186 -5.2899,-3.8217 0,-3.6278 3.2732,0.11998 9.5219,1.7525 13.886,3.6278 7.9349,3.4098 7.9349,3.4098 0,3.6278 -4.3642,0.11996 -10.613,-1.5126 -13.886,-3.6278 z m 47.609,-27.772 c 0,-2.1821 1.68,-3.9675 3.7333,-3.9675 2.0533,0 4.8367,1.7854 6.1853,3.9675 1.3486,2.1821 -0.33136,3.9675 -3.7333,3.9675 -3.40194,0 -6.1853,-1.7854 -6.1853,-3.9675 z" />
    </g>
  </g>
  <metadata
     id="metadata8">
    <rdf:RDF>
      <cc:Work>
        <dc:format>image/svg+xml</dc:format>
        <dc:type
           rdf:resource="http://purl.org/dc/dcmitype/StillImage" />
        <cc:license
           rdf:resource="http://creativecommons.org/publicdomain/zero/1.0/" />
        <dc:publisher>
          <cc:Agent
             rdf:about="http://openclipart.org/">
            <dc:title>Openclipart</dc:title>
          </cc:Agent>
        </dc:publisher>
      </cc:Work>
      <cc:License
         rdf:about="http://creativecommons.org/licenses/publicdomain/">
        <cc:permits
           rdf:resource="http://creativecommons.org/ns#Reproduction" />
        <cc:permits
           rdf:resource="http://creativecommons.org/ns#Distribution" />
        <cc:permits
           rdf:resource="http://creativecommons.org/ns#DerivativeWorks" />
      </cc:License>
    </rdf:RDF>
  </metadata>
</svg>
